<svg width="28" height="32" viewBox="0 0 28 32" fill="none" xmlns="http://www.w3.org/2000/svg">
<path d="M25 2H3C1.34312 2 0 3.34312 0 5V27C0 28.6569 1.34312 30 3 30H25C26.6569 30 28 28.6569 28 27V5C28 3.34312 26.6569 2 25 2ZM25 27H3V5H25V27ZM22.7585 11.8923L11.9717 22.5925C11.6776 22.8842 11.2027 22.8823 10.9111 22.5882L5.23725 16.8685C4.94556 16.5744 4.94744 16.0996 5.24156 15.8078L6.6615 14.3993C6.95556 14.1076 7.43044 14.1095 7.72213 14.4036L11.4591 18.1709L20.2936 9.40744C20.5877 9.11575 21.0626 9.11763 21.3542 9.41169L22.7628 10.8316C23.0544 11.1257 23.0526 11.6006 22.7585 11.8923Z" fill="#7EBFE2"/>
</svg>
