<svg width="50" height="38" viewBox="0 0 50 38" fill="none" xmlns="http://www.w3.org/2000/svg">
<path d="M45.3125 0H4.6875C2.09863 0 0 2.10404 0 4.69958V32.8971C0 35.4926 2.09863 37.5967 4.6875 37.5967H45.3125C47.9014 37.5967 50 35.4926 50 32.8971V4.69958C50 2.10404 47.9014 0 45.3125 0ZM45.3125 4.69958V8.69472C43.1229 10.4824 39.632 13.2622 32.1692 19.1209C30.5246 20.4179 27.2668 23.5339 25 23.4975C22.7336 23.5343 19.4747 20.4174 17.8308 19.1209C10.3691 13.2631 6.87744 10.4827 4.6875 8.69472V4.69958H45.3125ZM4.6875 32.8971V14.7252C6.9252 16.5121 10.0985 19.0196 14.9354 22.8169C17.0698 24.5014 20.8078 28.22 25 28.1974C29.1716 28.22 32.8622 24.5553 35.0638 22.8177C39.9005 19.0205 43.0747 16.5123 45.3125 14.7253V32.8971H4.6875Z" fill="#0E4564"/>
</svg>
