<svg width="200" height="200" viewBox="0 0 200 200" fill="none" xmlns="http://www.w3.org/2000/svg">
<circle cx="100" cy="100" r="100" fill="white"/>
<g clip-path="url(#clip0)">
<path d="M157.116 81.3625L157.118 81.3708C159.537 91.0869 156.953 101.778 149.354 109.377C147.044 111.687 144.414 113.479 141.615 114.844L138.357 111.586C133.606 106.835 127.279 104.219 120.559 104.219C118.978 104.219 117.373 104.375 115.803 104.672L99.1912 88.0606C99.2451 80.6268 102.002 73.2662 107.623 67.6456C115.198 60.0708 125.886 57.4844 135.605 59.881C136.12 60.0149 136.243 60.6247 135.922 60.9453L119.647 77.2203L118.92 77.9479L119.089 78.9628L121.561 93.816L121.795 95.2259L123.205 95.4605L138.058 97.9324L139.073 98.1013L139.801 97.3737L156.076 81.0987C156.438 80.7364 157.012 80.9375 157.116 81.3625ZM53.5041 146.527L53.5045 146.526L85.4278 114.582L95.6536 124.808C94.8779 129.061 95.2992 133.356 96.6167 137.351L70.4725 163.495C65.7848 168.183 58.1918 168.183 53.5041 163.495C48.8164 158.808 48.8164 151.215 53.5041 146.527ZM54.7492 155C54.7492 158.992 58.0071 162.25 61.9992 162.25C66.0186 162.25 69.2492 158.987 69.2492 155C69.2492 150.986 66.0132 147.75 61.9992 147.75C57.9853 147.75 54.7492 150.986 54.7492 155Z" fill="#C4C4C4" stroke="#52575A" stroke-width="4"/>
<path d="M89 92.5845V93.4129L89.5858 93.9987L112.19 116.603L112.117 117.084L108.136 121.319H107.732L84.9986 98.5859L84.4128 98.0001H83.5844H71L51.6408 72.1878L63.1877 60.6409L89 80.0001V92.5845Z" fill="#C4C4C4" stroke="#52575A" stroke-width="4"/>
<path d="M143.673 164.202L143.669 164.206C141.281 166.61 137.389 166.617 134.974 164.202L109.358 138.586C105.244 134.472 104.215 128.452 106.209 123.319H107.001H107.866L108.458 122.689L113.458 117.37L113.885 116.916L113.979 116.3L114.133 115.279C119.3 113.174 125.418 114.19 129.586 118.358L155.202 143.974C157.589 146.361 157.597 150.258 155.2 152.675C155.199 152.676 155.198 152.677 155.197 152.678L143.673 164.202Z" fill="#4E2712" stroke="#211007" stroke-width="4"/>
</g>
<path d="M42.7363 59.5346L42.9133 61.2992C42.9241 61.407 43.0031 61.4956 43.1089 61.5186L44.8419 61.8956L43.2183 62.6092C43.1192 62.6528 43.0593 62.7552 43.0702 62.863L43.2471 64.6276L42.0667 63.304C41.9946 63.2232 41.8787 63.198 41.7796 63.2416L40.156 63.9552L41.05 62.4236C41.1046 62.33 41.0928 62.212 41.0207 62.1311L39.8403 60.8075L41.5732 61.1845C41.6791 61.2075 41.7877 61.1598 41.8423 61.0663L42.7363 59.5346Z" fill="#E4F5FF" stroke="#B9DCEE" stroke-width="0.5" stroke-linejoin="round"/>
<path d="M70.1383 43.7472L70.3878 46.2347C70.3986 46.3425 70.4776 46.431 70.5834 46.4541L73.0263 46.9855L70.7376 47.9914C70.6384 48.035 70.5786 48.1375 70.5894 48.2453L70.8389 50.7328L69.1749 48.867C69.1028 48.7862 68.9869 48.7609 68.8878 48.8045L66.5991 49.8105L67.8594 47.6514C67.914 47.5578 67.9021 47.4398 67.83 47.359L66.166 45.4931L68.6089 46.0246C68.7148 46.0476 68.8234 45.9998 68.878 45.9063L70.1383 43.7472Z" fill="#E4F5FF" stroke="#B9DCEE" stroke-width="0.5" stroke-linejoin="round"/>
<path d="M51.0349 46.4283L51.1756 47.8315C51.1864 47.9393 51.2654 48.0278 51.3712 48.0508L52.7492 48.3506L51.4582 48.9181C51.359 48.9616 51.2992 49.0641 51.31 49.1719L51.4508 50.575L50.5121 49.5226C50.4401 49.4417 50.3241 49.4165 50.225 49.4601L48.934 50.0275L49.6449 48.8096C49.6995 48.7161 49.6876 48.598 49.6155 48.5172L48.6769 47.4647L50.0549 47.7645C50.1607 47.7875 50.2694 47.7398 50.324 47.6462L51.0349 46.4283Z" fill="#E4F5FF" stroke="#B9DCEE" stroke-width="0.5" stroke-linejoin="round"/>
<path d="M154.821 58.1962L156.266 57.1674C156.354 57.1046 156.392 56.9921 156.359 56.8888L155.827 55.197L157.252 56.2529C157.339 56.3174 157.458 56.3185 157.546 56.2557L158.991 55.2269L158.427 56.9083C158.392 57.011 158.428 57.1242 158.515 57.1887L159.94 58.2446L158.166 58.2279C158.058 58.2268 157.961 58.2957 157.927 58.3983L157.363 60.0798L156.831 58.388C156.798 58.2847 156.703 58.214 156.595 58.213L154.821 58.1962Z" fill="#E4F5FF" stroke="#B9DCEE" stroke-width="0.5" stroke-linejoin="round"/>
<path d="M125.122 37.7501L127.158 36.2998C127.247 36.237 127.284 36.1245 127.252 36.0212L126.502 33.6363L128.51 35.1249C128.597 35.1893 128.716 35.1905 128.804 35.1276L130.841 33.6774L130.046 36.0476C130.011 36.1503 130.047 36.2635 130.134 36.328L132.142 37.8165L129.642 37.7929C129.534 37.7918 129.437 37.8607 129.403 37.9633L128.608 40.3336L127.858 37.9487C127.825 37.8454 127.73 37.7748 127.622 37.7737L125.122 37.7501Z" fill="#E4F5FF" stroke="#B9DCEE" stroke-width="0.5" stroke-linejoin="round"/>
<path d="M144.672 51.4193L145.82 50.6012C145.908 50.5384 145.946 50.4259 145.914 50.3226L145.491 48.9773L146.624 49.817C146.711 49.8815 146.829 49.8826 146.917 49.8198L148.066 49.0017L147.618 50.3387C147.583 50.4414 147.619 50.5546 147.706 50.619L148.839 51.4587L147.429 51.4454C147.32 51.4443 147.224 51.5132 147.189 51.6159L146.741 52.9529L146.318 51.6076C146.285 51.5043 146.19 51.4336 146.082 51.4326L144.672 51.4193Z" fill="#E4F5FF" stroke="#B9DCEE" stroke-width="0.5" stroke-linejoin="round"/>
<path d="M114.553 52.0428L114.661 50.2726C114.668 50.1645 114.604 50.0645 114.503 50.0248L112.853 49.3751L114.57 48.9308C114.675 48.9036 114.75 48.8121 114.757 48.7039L114.865 46.9338L115.818 48.4293C115.876 48.5207 115.987 48.5641 116.092 48.537L117.808 48.0926L116.681 49.4613C116.612 49.5449 116.605 49.6633 116.663 49.7546L117.616 51.2502L115.966 50.6005C115.865 50.5608 115.75 50.5906 115.681 50.6742L114.553 52.0428Z" fill="#E4F5FF" stroke="#B9DCEE" stroke-width="0.5" stroke-linejoin="round"/>
<path d="M88.4832 59.2702L88.6354 56.7749C88.642 56.6667 88.5782 56.5667 88.4774 56.527L86.1512 55.6112L88.5715 54.9848C88.6763 54.9576 88.7518 54.8661 88.7584 54.758L88.9105 52.2626L90.2542 54.3708C90.3124 54.4622 90.4228 54.5056 90.5276 54.4785L92.9479 53.8521L91.3581 55.7815C91.2892 55.8651 91.282 55.9835 91.3402 56.0748L92.6838 58.1831L90.3576 57.2672C90.2568 57.2276 90.1419 57.2573 90.0731 57.3409L88.4832 59.2702Z" fill="#E4F5FF" stroke="#B9DCEE" stroke-width="0.5" stroke-linejoin="round"/>
<path d="M91.0879 41.9294L91.1738 40.5218C91.1803 40.4137 91.1166 40.3136 91.0158 40.2739L89.7036 39.7573L91.0689 39.404C91.1737 39.3768 91.2492 39.2853 91.2557 39.1772L91.3416 37.7696L92.0995 38.9588C92.1577 39.0501 92.2681 39.0936 92.373 39.0665L93.7382 38.7131L92.8414 39.8014C92.7725 39.885 92.7653 40.0035 92.8235 40.0948L93.5814 41.284L92.2692 40.7674C92.1685 40.7277 92.0536 40.7575 91.9847 40.841L91.0879 41.9294Z" fill="#E4F5FF" stroke="#B9DCEE" stroke-width="0.5" stroke-linejoin="round"/>
<defs>
<clipPath id="clip0">
<rect width="112" height="112" fill="white" transform="translate(48 57.0001)"/>
</clipPath>
</defs>
</svg>
