<svg width="200" height="200" viewBox="0 0 200 200" fill="none" xmlns="http://www.w3.org/2000/svg">
<circle cx="100" cy="100" r="100" fill="white"/>
<path d="M61.5 52.809L62.048 54.4957C62.0815 54.5987 62.1775 54.6684 62.2858 54.6684H64.0593L62.6245 55.7109C62.5369 55.7745 62.5002 55.8874 62.5337 55.9904L63.0817 57.6771L61.6469 56.6346C61.5593 56.571 61.4407 56.571 61.3531 56.6346L59.9183 57.6771L60.4663 55.9904C60.4998 55.8874 60.4631 55.7745 60.3755 55.7109L58.9407 54.6684H60.7142C60.8225 54.6684 60.9185 54.5987 60.952 54.4957L61.5 52.809Z" fill="#E4F5FF" stroke="#B9DCEE" stroke-width="0.5" stroke-linejoin="round"/>
<path d="M131.5 42.809L130.952 44.4957C130.918 44.5987 130.823 44.6684 130.714 44.6684H128.941L130.375 45.7109C130.463 45.7745 130.5 45.8874 130.466 45.9904L129.918 47.6771L131.353 46.6346C131.441 46.571 131.559 46.571 131.647 46.6346L133.082 47.6771L132.534 45.9904C132.5 45.8874 132.537 45.7745 132.625 45.7109L134.059 44.6684H132.286C132.177 44.6684 132.082 44.5987 132.048 44.4957L131.5 42.809Z" fill="#E4F5FF" stroke="#B9DCEE" stroke-width="0.5" stroke-linejoin="round"/>
<path d="M75.5 42.809L76.2725 45.1867C76.306 45.2897 76.402 45.3594 76.5103 45.3594H79.0103L76.9878 46.8289C76.9002 46.8926 76.8635 47.0054 76.897 47.1084L77.6695 49.4861L75.6469 48.0166C75.5593 47.9529 75.4407 47.9529 75.3531 48.0166L73.3305 49.4861L74.103 47.1084C74.1365 47.0054 74.0998 46.8926 74.0122 46.8289L71.9897 45.3594H74.4897C74.598 45.3594 74.694 45.2897 74.7275 45.1867L75.5 42.809Z" fill="#E4F5FF" stroke="#B9DCEE" stroke-width="0.5" stroke-linejoin="round"/>
<path d="M120.5 32.809L119.727 35.1867C119.694 35.2897 119.598 35.3594 119.49 35.3594H116.99L119.012 36.8289C119.1 36.8926 119.137 37.0054 119.103 37.1084L118.33 39.4861L120.353 38.0166C120.441 37.9529 120.559 37.9529 120.647 38.0166L122.67 39.4861L121.897 37.1084C121.863 37.0054 121.9 36.8926 121.988 36.8289L124.01 35.3594H121.51C121.402 35.3594 121.306 35.2897 121.273 35.1867L120.5 32.809Z" fill="#E4F5FF" stroke="#B9DCEE" stroke-width="0.5" stroke-linejoin="round"/>
<path d="M73 55.809L73.4358 57.1502C73.4692 57.2532 73.5652 57.3229 73.6735 57.3229H75.0837L73.9429 58.1518C73.8552 58.2155 73.8186 58.3284 73.852 58.4314L74.2878 59.7725L73.1469 58.9436C73.0593 58.88 72.9407 58.88 72.8531 58.9436L71.7122 59.7725L72.148 58.4314C72.1814 58.3284 72.1448 58.2155 72.0571 58.1518L70.9163 57.3229H72.3265C72.4348 57.3229 72.5308 57.2532 72.5642 57.1502L73 55.809Z" fill="#E4F5FF" stroke="#B9DCEE" stroke-width="0.5" stroke-linejoin="round"/>
<path d="M122 45.809L121.564 47.1502C121.531 47.2532 121.435 47.3229 121.326 47.3229H119.916L121.057 48.1518C121.145 48.2155 121.181 48.3284 121.148 48.4314L120.712 49.7725L121.853 48.9436C121.941 48.88 122.059 48.88 122.147 48.9436L123.288 49.7725L122.852 48.4314C122.819 48.3284 122.855 48.2155 122.943 48.1518L124.084 47.3229H122.674C122.565 47.3229 122.469 47.2532 122.436 47.1502L122 45.809Z" fill="#E4F5FF" stroke="#B9DCEE" stroke-width="0.5" stroke-linejoin="round"/>
<path d="M40 93.1775V111.189H59.1214V93.1775H53.8243H40Z" fill="#F1BBDF"/>
<path d="M65.4522 88.9014V111.189H77.4677V88.9014H65.4522Z" fill="#F1BBDF"/>
<path d="M94.7804 28V111.189H111.576V50.4169L94.7804 28Z" fill="#F1BBDF"/>
<path d="M134.186 64.5408H122.041V111.189H134.186V64.5408Z" fill="#F1BBDF"/>
<path d="M148.01 102.183V111.189H159.121V102.183H148.01Z" fill="#F1BBDF"/>
<path d="M40 111.189H38.5V112.689H40V111.189ZM40 93.1775V91.6775C39.1716 91.6775 38.5 92.349 38.5 93.1775H40ZM59.1214 93.1775H60.6214C60.6214 92.349 59.9499 91.6775 59.1214 91.6775V93.1775ZM65.4522 88.9014V87.4014H63.9522V88.9014H65.4522ZM77.4677 88.9014H78.9677C78.9677 88.073 78.2961 87.4014 77.4677 87.4014V88.9014ZM94.7804 28L95.9808 27.1006C95.5936 26.5838 94.9191 26.3728 94.3064 26.5769C93.6937 26.7809 93.2804 27.3542 93.2804 28H94.7804ZM111.576 50.4169H113.076C113.076 50.0926 112.971 49.777 112.777 49.5175L111.576 50.4169ZM122.041 64.5408V63.0408C121.213 63.0408 120.541 63.7124 120.541 64.5408H122.041ZM134.186 64.5408H135.686C135.686 63.7124 135.014 63.0408 134.186 63.0408V64.5408ZM134.186 111.189V112.689H135.686V111.189H134.186ZM148.01 102.183V100.683C147.182 100.683 146.51 101.355 146.51 102.183H148.01ZM159.121 102.183H160.621C160.621 101.355 159.95 100.683 159.121 100.683V102.183ZM159.121 111.189V112.689H160.621V111.189H159.121ZM41.5 111.189V93.1775H38.5V111.189H41.5ZM57.6214 93.1775V111.189H60.6214V93.1775H57.6214ZM40 94.6775H53.8243V91.6775H40V94.6775ZM53.8243 94.6775H59.1214V91.6775H53.8243V94.6775ZM59.1214 112.689H65.4522V109.689H59.1214V112.689ZM63.9522 88.9014V111.189H66.9522V88.9014H63.9522ZM65.4522 90.4014H77.4677V87.4014H65.4522V90.4014ZM90.3876 112.689H94.7804V109.689H90.3876V112.689ZM96.2804 111.189V28H93.2804V111.189H96.2804ZM93.5799 28.8994L110.376 51.3163L112.777 49.5175L95.9808 27.1006L93.5799 28.8994ZM94.7804 112.689H111.576V109.689H94.7804V112.689ZM111.576 112.689H122.041V109.689H111.576V112.689ZM122.041 66.0408H134.186V63.0408H122.041V66.0408ZM132.686 64.5408V111.189H135.686V64.5408H132.686ZM146.51 102.183V111.189H149.51V102.183H146.51ZM148.01 103.683H159.121V100.683H148.01V103.683ZM148.01 112.689H159.121V109.689H148.01V112.689ZM157.621 102.183V111.189H160.621V102.183H157.621ZM40 112.689H59.1214V109.689H40V112.689ZM65.4522 112.689H77.4677V109.689H65.4522V112.689ZM77.4677 112.689H90.3876V109.689H77.4677V112.689ZM75.9677 88.9014V111.189H78.9677V88.9014H75.9677ZM110.076 50.4169V111.189H113.076V50.4169H110.076ZM120.541 64.5408V111.189H123.541V64.5408H120.541ZM148.01 109.689H122.041V112.689H148.01V109.689ZM122.041 112.689H134.186V109.689H122.041V112.689Z" fill="#88487A"/>
<path d="M111.752 90.5831V111.315H122.217V90.5831H111.752Z" fill="#BC98EB"/>
<path d="M134.362 93.3042H128.677V111.315H148.186V102.31V93.3042H134.362Z" fill="#BC98EB"/>
<path d="M54 76.9775V111.315H65.6279V89.0282V76.9775H54Z" fill="#BC98EB"/>
<path d="M90.5633 67L77.6434 70.2394V111.315H90.5633V67Z" fill="#BC98EB"/>
<path d="M54 111.315H52.5V112.815H54V111.315ZM54 76.9775V75.4775C53.1716 75.4775 52.5 76.149 52.5 76.9775H54ZM65.6279 76.9775H67.1279C67.1279 76.149 66.4563 75.4775 65.6279 75.4775V76.9775ZM65.6279 111.315V112.815H67.1279V111.315H65.6279ZM77.6434 70.2394L77.2786 68.7845C76.6113 68.9518 76.1434 69.5515 76.1434 70.2394H77.6434ZM90.5633 67H92.0633C92.0633 66.5379 91.8503 66.1016 91.486 65.8174C91.1217 65.5331 90.6467 65.4327 90.1985 65.545L90.5633 67ZM90.5633 111.315V112.815H92.0633V111.315H90.5633ZM111.752 111.315H110.252V112.815H111.752V111.315ZM111.752 90.5831V89.0831C110.924 89.0831 110.252 89.7547 110.252 90.5831H111.752ZM122.217 90.5831H123.717C123.717 89.7547 123.045 89.0831 122.217 89.0831V90.5831ZM122.217 111.315V112.815H123.717V111.315H122.217ZM128.677 93.3042V91.8042C127.849 91.8042 127.177 92.4758 127.177 93.3042H128.677ZM128.677 111.315H127.177V112.815H128.677V111.315ZM148.186 93.3042H149.686C149.686 92.4758 149.014 91.8042 148.186 91.8042V93.3042ZM148.186 111.315V112.815H149.686V111.315H148.186ZM77.6434 111.315H76.1434V112.815H77.6434V111.315ZM55.5 111.315V76.9775H52.5V111.315H55.5ZM54 78.4775H65.6279V75.4775H54V78.4775ZM64.1279 76.9775V89.0282H67.1279V76.9775H64.1279ZM64.1279 89.0282V111.315H67.1279V89.0282H64.1279ZM78.0082 71.6944L90.9281 68.455L90.1985 65.545L77.2786 68.7845L78.0082 71.6944ZM89.0633 67V111.315H92.0633V67H89.0633ZM110.252 90.5831V111.315H113.252V90.5831H110.252ZM111.752 92.0831H122.217V89.0831H111.752V92.0831ZM111.752 112.815H122.217V109.815H111.752V112.815ZM120.717 90.5831V111.315H123.717V90.5831H120.717ZM134.362 91.8042H128.677V94.8042H134.362V91.8042ZM127.177 93.3042V111.315H130.177V93.3042H127.177ZM134.362 94.8042H148.186V91.8042H134.362V94.8042ZM128.677 112.815H148.186V109.815H128.677V112.815ZM146.686 93.3042V102.31H149.686V93.3042H146.686ZM146.686 102.31V111.315H149.686V102.31H146.686ZM77.6434 112.815H90.5633V109.815H77.6434V112.815ZM54 112.815H65.6279V109.815H54V112.815ZM76.1434 70.2394V111.315H79.1434V70.2394H76.1434Z" fill="#5D396D"/>
<path d="M59.6253 111H40.5039H26.5V111C25.8461 111 25.4468 111.719 25.7921 112.274L25.8154 112.311L31.5 121.453V121.453C32.1179 122.447 33.205 123.051 34.375 123.051H34.5H45.9302H66.6633H133.14H154.328H165H165.597C166.863 123.051 168.038 122.392 168.699 121.311V121.311L173.893 112.811V112.811C174.378 112.018 173.807 111 172.877 111H172.5H159.625H148.514H129.005H122.545H112.08H95.2842H90.8915H77.9716H65.9561H59.6253Z" fill="#E3FDFF"/>
<path d="M59.6253 111H65.9561H77.9716H90.8915H95.2842H112.08H122.545H129.005H148.514H159.625H172.5H172.877C173.807 111 174.378 112.018 173.893 112.811V112.811L168.699 121.311V121.311C168.038 122.392 166.863 123.051 165.597 123.051H165H154.328H133.14H66.6633M59.6253 111H40.5039H26.5M59.6253 111H26.5M66.7313 122.921L66.6633 123.051M66.6633 123.051H45.9302H34.5H34.375C33.205 123.051 32.1179 122.447 31.5 121.453V121.453L25.8154 112.311L25.7921 112.274C25.4468 111.719 25.8461 111 26.5 111V111" stroke="#7B7B7B" stroke-width="3"/>
<path d="M134.209 123L139.377 132.718H150.488L155.398 123H134.209Z" fill="#E4F5FF"/>
<path d="M47 123L52.0388 132.718H62.6331L67.733 123H47Z" fill="#E4F5FF"/>
<path d="M47 123V121.5H44.5326L45.6683 123.69L47 123ZM52.0388 132.718L50.7071 133.409C50.965 133.906 51.4785 134.218 52.0388 134.218V132.718ZM62.6331 132.718V134.218C63.1906 134.218 63.7022 133.909 63.9613 133.415L62.6331 132.718ZM67.733 123L69.0613 123.697L70.2142 121.5H67.733V123ZM134.209 123V121.5H131.713L132.885 123.704L134.209 123ZM139.377 132.718L138.053 133.423C138.313 133.912 138.823 134.218 139.377 134.218V132.718ZM150.488 132.718V134.218C151.054 134.218 151.572 133.9 151.827 133.395L150.488 132.718ZM155.398 123L156.737 123.676L157.836 121.5H155.398V123ZM59.0698 138.761C59.0698 137.932 58.3982 137.261 57.5698 137.261C56.7413 137.261 56.0698 137.932 56.0698 138.761H59.0698ZM56.0698 161.261C56.0698 162.089 56.7413 162.761 57.5698 162.761C58.3982 162.761 59.0698 162.089 59.0698 161.261H56.0698ZM54.5698 147.49C54.5698 146.662 53.8982 145.99 53.0698 145.99C52.2413 145.99 51.5698 146.662 51.5698 147.49H54.5698ZM51.5698 155.761C51.5698 156.589 52.2413 157.261 53.0698 157.261C53.8982 157.261 54.5698 156.589 54.5698 155.761H51.5698ZM63.5698 139.261C63.5698 138.432 62.8982 137.761 62.0698 137.761C61.2413 137.761 60.5698 138.432 60.5698 139.261H63.5698ZM60.5698 149.261C60.5698 150.089 61.2413 150.761 62.0698 150.761C62.8982 150.761 63.5698 150.089 63.5698 149.261H60.5698ZM146.07 138.761C146.07 137.932 145.398 137.261 144.57 137.261C143.741 137.261 143.07 137.932 143.07 138.761H146.07ZM143.07 161.261C143.07 162.089 143.741 162.761 144.57 162.761C145.398 162.761 146.07 162.089 146.07 161.261H143.07ZM141.57 147.49C141.57 146.662 140.898 145.99 140.07 145.99C139.241 145.99 138.57 146.662 138.57 147.49H141.57ZM138.57 155.761C138.57 156.589 139.241 157.261 140.07 157.261C140.898 157.261 141.57 156.589 141.57 155.761H138.57ZM150.57 139.261C150.57 138.432 149.898 137.761 149.07 137.761C148.241 137.761 147.57 138.432 147.57 139.261H150.57ZM147.57 149.261C147.57 150.089 148.241 150.761 149.07 150.761C149.898 150.761 150.57 150.089 150.57 149.261H147.57ZM45.6683 123.69L50.7071 133.409L53.3704 132.028L48.3317 122.31L45.6683 123.69ZM52.0388 134.218H62.6331V131.218H52.0388V134.218ZM132.885 123.704L138.053 133.423L140.702 132.014L135.534 122.296L132.885 123.704ZM139.377 134.218H150.488V131.218H139.377V134.218ZM134.209 124.5H155.398V121.5H134.209V124.5ZM151.827 133.395L156.737 123.676L154.059 122.324L149.15 132.042L151.827 133.395ZM47 124.5H67.733V121.5H47V124.5ZM63.9613 133.415L69.0613 123.697L66.4048 122.303L61.3049 132.021L63.9613 133.415ZM56.0698 138.761V161.261H59.0698V138.761H56.0698ZM51.5698 147.49V155.761H54.5698V147.49H51.5698ZM60.5698 139.261V149.261H63.5698V139.261H60.5698ZM143.07 138.761V161.261H146.07V138.761H143.07ZM138.57 147.49V155.761H141.57V147.49H138.57ZM147.57 139.261V149.261H150.57V139.261H147.57Z" fill="#5166B0"/>
<path d="M96.8397 48.1331C96.6371 47.9455 96.3207 47.9577 96.1331 48.1603C95.9455 48.3629 95.9577 48.6793 96.1603 48.8669L96.8397 48.1331ZM110 61L110.277 61.416C110.405 61.3311 110.486 61.1924 110.498 61.0397C110.511 60.887 110.452 60.7372 110.34 60.6331L110 61ZM96.5 70L96.2226 69.584C96.0872 69.6743 96.0042 69.8249 96.0002 69.9876C95.9961 70.1504 96.0716 70.3049 96.2024 70.4018L96.5 70ZM110 80L110.277 80.416C110.413 80.3257 110.496 80.1751 110.5 80.0124C110.504 79.8496 110.428 79.6951 110.298 79.5982L110 80ZM96.5 89L96.2226 88.584C96.0889 88.6731 96.0062 88.8211 96.0003 88.9817C95.9945 89.1424 96.0662 89.296 96.193 89.3947L96.5 89ZM110 99.5L110.288 99.9089C110.417 99.8177 110.496 99.6704 110.5 99.512C110.504 99.3535 110.432 99.2026 110.307 99.1053L110 99.5ZM96.2123 108.591C95.9864 108.75 95.9322 109.062 96.0911 109.288C96.25 109.514 96.5619 109.568 96.7877 109.409L96.2123 108.591ZM96.1603 48.8669L109.66 61.3669L110.34 60.6331L96.8397 48.1331L96.1603 48.8669ZM109.723 60.584L96.2226 69.584L96.7774 70.416L110.277 61.416L109.723 60.584ZM96.2024 70.4018L109.702 80.4018L110.298 79.5982L96.7976 69.5982L96.2024 70.4018ZM109.723 79.584L96.2226 88.584L96.7774 89.416L110.277 80.416L109.723 79.584ZM96.193 89.3947L109.693 99.8947L110.307 99.1053L96.807 88.6053L96.193 89.3947ZM109.712 99.0911L96.2123 108.591L96.7877 109.409L110.288 99.9089L109.712 99.0911Z" fill="#8AB4C1"/>
</svg>
