<svg width="200" height="200" viewBox="0 0 200 200" fill="none" xmlns="http://www.w3.org/2000/svg">
<circle cx="100" cy="100" r="100" fill="white"/>
<path d="M70.5 46.809L71.048 48.4957C71.0815 48.5987 71.1775 48.6684 71.2858 48.6684H73.0593L71.6245 49.7109C71.5369 49.7745 71.5002 49.8874 71.5337 49.9904L72.0817 51.6771L70.6469 50.6346C70.5593 50.571 70.4407 50.571 70.3531 50.6346L68.9183 51.6771L69.4663 49.9904C69.4998 49.8874 69.4631 49.7745 69.3755 49.7109L67.9407 48.6684H69.7142C69.8225 48.6684 69.9185 48.5987 69.952 48.4957L70.5 46.809Z" fill="#E4F5FF" stroke="#B9DCEE" stroke-width="0.5" stroke-linejoin="round"/>
<path d="M131.5 46.809L130.952 48.4957C130.918 48.5987 130.823 48.6684 130.714 48.6684H128.941L130.375 49.7109C130.463 49.7745 130.5 49.8874 130.466 49.9904L129.918 51.6771L131.353 50.6346C131.441 50.571 131.559 50.571 131.647 50.6346L133.082 51.6771L132.534 49.9904C132.5 49.8874 132.537 49.7745 132.625 49.7109L134.059 48.6684H132.286C132.177 48.6684 132.082 48.5987 132.048 48.4957L131.5 46.809Z" fill="#E4F5FF" stroke="#B9DCEE" stroke-width="0.5" stroke-linejoin="round"/>
<path d="M109.5 65.809L108.952 67.4957C108.918 67.5987 108.823 67.6684 108.714 67.6684H106.941L108.375 68.7109C108.463 68.7745 108.5 68.8874 108.466 68.9904L107.918 70.6771L109.353 69.6346C109.441 69.571 109.559 69.571 109.647 69.6346L111.082 70.6771L110.534 68.9904C110.5 68.8874 110.537 68.7745 110.625 68.7109L112.059 67.6684H110.286C110.177 67.6684 110.082 67.5987 110.048 67.4957L109.5 65.809Z" fill="#E4F5FF" stroke="#B9DCEE" stroke-width="0.5" stroke-linejoin="round"/>
<path d="M84.5 36.809L85.2725 39.1867C85.306 39.2897 85.402 39.3594 85.5103 39.3594H88.0103L85.9878 40.8289C85.9002 40.8926 85.8635 41.0054 85.897 41.1084L86.6695 43.4861L84.6469 42.0166C84.5593 41.9529 84.4407 41.9529 84.3531 42.0166L82.3305 43.4861L83.103 41.1084C83.1365 41.0054 83.0998 40.8926 83.0122 40.8289L80.9897 39.3594H83.4897C83.598 39.3594 83.694 39.2897 83.7275 39.1867L84.5 36.809Z" fill="#E4F5FF" stroke="#B9DCEE" stroke-width="0.5" stroke-linejoin="round"/>
<path d="M120.5 36.809L119.727 39.1867C119.694 39.2897 119.598 39.3594 119.49 39.3594H116.99L119.012 40.8289C119.1 40.8926 119.137 41.0054 119.103 41.1084L118.33 43.4861L120.353 42.0166C120.441 41.9529 120.559 41.9529 120.647 42.0166L122.67 43.4861L121.897 41.1084C121.863 41.0054 121.9 40.8926 121.988 40.8289L124.01 39.3594H121.51C121.402 39.3594 121.306 39.2897 121.273 39.1867L120.5 36.809Z" fill="#E4F5FF" stroke="#B9DCEE" stroke-width="0.5" stroke-linejoin="round"/>
<path d="M98.5 55.809L97.7275 58.1867C97.694 58.2897 97.598 58.3594 97.4897 58.3594H94.9897L97.0122 59.8289C97.0998 59.8926 97.1365 60.0054 97.103 60.1084L96.3305 62.4861L98.3531 61.0166C98.4407 60.9529 98.5593 60.9529 98.6469 61.0166L100.67 62.4861L99.897 60.1084C99.8635 60.0054 99.9002 59.8926 99.9878 59.8289L102.01 58.3594H99.5103C99.402 58.3594 99.306 58.2897 99.2725 58.1867L98.5 55.809Z" fill="#E4F5FF" stroke="#B9DCEE" stroke-width="0.5" stroke-linejoin="round"/>
<path d="M82 49.809L82.4358 51.1502C82.4692 51.2532 82.5652 51.3229 82.6735 51.3229H84.0837L82.9429 52.1518C82.8552 52.2155 82.8186 52.3284 82.852 52.4314L83.2878 53.7725L82.1469 52.9436C82.0593 52.88 81.9407 52.88 81.8531 52.9436L80.7122 53.7725L81.148 52.4314C81.1814 52.3284 81.1448 52.2155 81.0571 52.1518L79.9163 51.3229H81.3265C81.4348 51.3229 81.5308 51.2532 81.5642 51.1502L82 49.809Z" fill="#E4F5FF" stroke="#B9DCEE" stroke-width="0.5" stroke-linejoin="round"/>
<path d="M122 49.809L121.564 51.1502C121.531 51.2532 121.435 51.3229 121.326 51.3229H119.916L121.057 52.1518C121.145 52.2155 121.181 52.3284 121.148 52.4314L120.712 53.7725L121.853 52.9436C121.941 52.88 122.059 52.88 122.147 52.9436L123.288 53.7725L122.852 52.4314C122.819 52.3284 122.855 52.2155 122.943 52.1518L124.084 51.3229H122.674C122.565 51.3229 122.469 51.2532 122.436 51.1502L122 49.809Z" fill="#E4F5FF" stroke="#B9DCEE" stroke-width="0.5" stroke-linejoin="round"/>
<path d="M100 68.809L99.5642 70.1502C99.5308 70.2532 99.4348 70.3229 99.3265 70.3229H97.9163L99.0571 71.1518C99.1448 71.2155 99.1814 71.3284 99.148 71.4314L98.7122 72.7725L99.8531 71.9436C99.9407 71.88 100.059 71.88 100.147 71.9436L101.288 72.7725L100.852 71.4314C100.819 71.3284 100.855 71.2155 100.943 71.1518L102.084 70.3229H100.674C100.565 70.3229 100.469 70.2532 100.436 70.1502L100 68.809Z" fill="#E4F5FF" stroke="#B9DCEE" stroke-width="0.5" stroke-linejoin="round"/>
<path d="M52.4306 120.88C52.3284 115.78 49.1443 113.084 43.1836 107.375L71.0391 79.3223C76.1086 85.4839 79.8978 89.2864 86.932 90.0528C91.9584 87.585 94.2713 87.947 99.9633 88.3666C109.007 82.713 120.605 88.2132 122.856 89.2809L122.868 89.2864C125.09 90.3405 130.984 85.8733 134.489 80.8552L158.956 105.244C153.471 108.77 148.842 112.907 146.743 120.88C144.643 128.854 140.606 136.194 131.737 142.479L133.641 144.779C137.88 150.899 130.686 157.442 124.09 152.105L126.538 154.59C132.991 161.962 123.093 169.297 115.737 159.847C120.028 166.025 113.203 171.911 107.066 167.419L98.067 158.337C98.987 160.088 101.615 170.667 87.5437 166.547C82.0004 171.5 74.5004 166 78.5216 158.729C72.5004 163.5 65.0803 156.5 71.0286 149.378C65.5004 154.59 56.5004 146.5 63.2298 140.487C61.3806 141.718 59.4394 139.771 58.0306 138.034C54.8881 134.159 53.1785 126.236 52.4306 120.88Z" fill="#FFECCF"/>
<path d="M63.2298 140.487C69.2039 136.507 76.5336 142.786 71.0286 149.378M63.2298 140.487C61.3806 141.718 59.4394 139.771 58.0306 138.034C54.8881 134.159 53.1785 126.236 52.4306 120.88C52.3284 115.78 49.1443 113.084 43.1836 107.375L71.0391 79.3223C76.1086 85.4839 79.8978 89.2864 86.932 90.0528C91.9584 87.585 94.2713 87.947 99.9633 88.3666M63.2298 140.487C56.5004 146.5 65.5004 154.59 71.0286 149.378M115.324 159.294C120.435 165.666 113.385 172.045 107.066 167.419C97.8897 158.158 92.7446 152.966 83.5678 143.706M115.324 159.294C106.864 150.572 102.121 145.682 93.6604 136.961M115.324 159.294C122.714 169.574 133.113 162.101 126.538 154.59L99.9633 127.61M122.103 150.087C129.099 158.781 138.312 151.524 133.641 144.779L131.737 142.479M99.9633 110.441L104.67 105.536M99.9633 110.441C99.4623 110.43 96.4724 115.028 89.0729 121.325C81.6733 127.622 72.099 117.952 78.3687 110.441C84.6383 102.93 99.9633 88.3666 99.9633 88.3666M99.9633 110.441L108.533 119.179M99.9633 88.3666C109.022 82.7032 120.645 88.2323 122.868 89.2864C125.09 90.3405 130.984 85.8733 134.489 80.8552L158.956 105.244C153.471 108.77 148.842 112.907 146.743 120.88C144.643 128.854 140.606 136.194 131.737 142.479M108.533 119.179C114.384 121.617 117.024 121.566 122.103 120.098M108.533 119.179L131.737 142.479M71.0286 149.378C77.0027 145.398 84.0266 152.137 78.5216 158.729M71.0286 149.378C65.0803 156.5 72.5004 163.5 78.5216 158.729M87.5437 166.547C103.202 171.132 98.1816 157.514 97.8473 158.115M87.5437 166.547C91.2137 158.729 84.4956 154.749 78.5216 158.729M87.5437 166.547C82.0004 171.5 74.5004 166 78.5216 158.729" stroke="#CD9C78" stroke-width="4"/>
<path d="M58.336 62L25.9175 94.6516L25 95.7247L40.1388 110.441L43.1832 107.375L71.0387 79.3222L73.3219 77.0228L58.336 62Z" fill="#96A5AD"/>
<path d="M177 92.3522L161.708 107.988L158.956 105.244L146.722 93.0498L134.489 80.8552L130.972 77.4827L145.958 62L177 92.3522Z" fill="#96A5AD"/>
<path d="M58.336 62L25.9175 94.6516L25 95.7247L40.1388 110.441L43.1832 107.375L71.0387 79.3222L73.3219 77.0228L58.336 62Z" stroke="#0C3045" stroke-width="4"/>
<path d="M177 92.3522L161.708 107.988L158.956 105.244L146.722 93.0498L134.489 80.8552L130.972 77.4827L145.958 62L177 92.3522Z" stroke="#0C3045" stroke-width="4"/>
<circle cx="38.5" cy="96.5" r="2" fill="#FFFEFE" stroke="black"/>
<circle cx="163.5" cy="94.5" r="2" fill="white" stroke="black"/>
</svg>
