<svg width="111" height="56" viewBox="0 0 111 56" fill="none" xmlns="http://www.w3.org/2000/svg">
<path d="M11.989 40C10.819 40 10.039 39.385 9.64904 38.155L0.604043 8.095C0.304043 7.105 0.319043 6.325 0.649043 5.755C1.00904 5.155 1.57904 4.855 2.35904 4.855C2.86904 4.855 3.33404 5.005 3.75404 5.305C4.17404 5.575 4.47404 6.01 4.65404 6.61L12.034 32.26L18.829 6.88C18.949 6.43 19.219 6.055 19.639 5.755C20.059 5.455 20.539 5.305 21.079 5.305C21.559 5.305 22.009 5.44 22.429 5.71C22.879 5.95 23.164 6.325 23.284 6.835L30.169 32.44L37.639 6.385C37.939 5.365 38.704 4.855 39.934 4.855C40.774 4.855 41.314 5.185 41.554 5.845C41.794 6.475 41.794 7.225 41.554 8.095L32.509 38.11C32.299 38.68 31.984 39.145 31.564 39.505C31.174 39.835 30.709 40 30.169 40C29.599 40 29.104 39.82 28.684 39.46C28.294 39.1 28.009 38.665 27.829 38.155L21.124 12.235L14.329 38.11C14.119 38.68 13.804 39.145 13.384 39.505C12.994 39.835 12.529 40 11.989 40ZM49.0455 40C48.3855 40 47.8305 39.79 47.3805 39.37C46.9605 38.92 46.7505 38.365 46.7505 37.705V17.68C46.7505 16.99 46.9605 16.435 47.3805 16.015C47.8305 15.595 48.3855 15.385 49.0455 15.385C49.7355 15.385 50.2905 15.595 50.7105 16.015C51.1305 16.435 51.3405 16.99 51.3405 17.68V37.705C51.3405 38.365 51.1305 38.92 50.7105 39.37C50.2905 39.79 49.7355 40 49.0455 40ZM49.0455 11.38C48.2355 11.38 47.5305 11.095 46.9305 10.525C46.3605 9.925 46.0755 9.22 46.0755 8.41C46.0755 7.6 46.3605 6.91 46.9305 6.34C47.5305 5.74 48.2355 5.44 49.0455 5.44C49.8555 5.44 50.5455 5.74 51.1155 6.34C51.7155 6.91 52.0155 7.6 52.0155 8.41C52.0155 9.22 51.7155 9.925 51.1155 10.525C50.5455 11.095 49.8555 11.38 49.0455 11.38ZM68.8346 40.18C66.7346 40.18 64.7846 39.865 62.9846 39.235C61.2146 38.575 59.8346 37.75 58.8446 36.76C58.3946 36.28 58.1996 35.74 58.2596 35.14C58.3496 34.51 58.6496 34 59.1596 33.61C59.7596 33.13 60.3446 32.935 60.9146 33.025C61.5146 33.085 62.0246 33.34 62.4446 33.79C62.9546 34.36 63.7646 34.9 64.8746 35.41C66.0146 35.89 67.2746 36.13 68.6546 36.13C70.3946 36.13 71.7146 35.845 72.6146 35.275C73.5446 34.705 74.0246 33.97 74.0546 33.07C74.0846 32.17 73.6496 31.39 72.7496 30.73C71.8796 30.07 70.2746 29.53 67.9346 29.11C64.9046 28.51 62.6996 27.61 61.3196 26.41C59.9696 25.21 59.2946 23.74 59.2946 22C59.2946 20.47 59.7446 19.21 60.6446 18.22C61.5446 17.2 62.6996 16.45 64.1096 15.97C65.5196 15.46 66.9896 15.205 68.5196 15.205C70.4996 15.205 72.2546 15.52 73.7846 16.15C75.3146 16.78 76.5296 17.65 77.4296 18.76C77.8496 19.24 78.0446 19.75 78.0146 20.29C77.9846 20.8 77.7296 21.235 77.2496 21.595C76.7696 21.925 76.1996 22.03 75.5396 21.91C74.8796 21.79 74.3246 21.52 73.8746 21.1C73.1246 20.38 72.3146 19.885 71.4446 19.615C70.5746 19.345 69.5696 19.21 68.4296 19.21C67.1096 19.21 65.9846 19.435 65.0546 19.885C64.1546 20.335 63.7046 20.995 63.7046 21.865C63.7046 22.405 63.8396 22.9 64.1096 23.35C64.4096 23.77 64.9796 24.16 65.8196 24.52C66.6596 24.85 67.8896 25.18 69.5096 25.51C72.8996 26.17 75.2396 27.115 76.5296 28.345C77.8496 29.545 78.5096 31.03 78.5096 32.8C78.5096 34.18 78.1346 35.425 77.3846 36.535C76.6646 37.645 75.5846 38.53 74.1446 39.19C72.7346 39.85 70.9646 40.18 68.8346 40.18ZM86.6082 40.045C85.9482 40.045 85.3932 39.835 84.9432 39.415C84.5232 38.965 84.3132 38.41 84.3132 37.75V17.68C84.3132 16.99 84.5232 16.435 84.9432 16.015C85.3932 15.595 85.9482 15.385 86.6082 15.385C87.2982 15.385 87.8532 15.595 88.2732 16.015C88.6932 16.435 88.9032 16.99 88.9032 17.68V18.175C89.8332 17.245 90.9582 16.51 92.2782 15.97C93.5982 15.43 95.0232 15.16 96.5532 15.16C98.6232 15.16 100.468 15.61 102.088 16.51C103.738 17.38 105.028 18.67 105.958 20.38C106.918 22.09 107.398 24.19 107.398 26.68V37.75C107.398 38.41 107.173 38.965 106.723 39.415C106.303 39.835 105.763 40.045 105.103 40.045C104.443 40.045 103.888 39.835 103.438 39.415C103.018 38.965 102.808 38.41 102.808 37.75V26.68C102.808 24.13 102.118 22.27 100.738 21.1C99.3882 19.9 97.6932 19.3 95.6532 19.3C94.3932 19.3 93.2532 19.555 92.2332 20.065C91.2132 20.575 90.4032 21.265 89.8032 22.135C89.2032 22.975 88.9032 23.95 88.9032 25.06V37.75C88.9032 38.41 88.6932 38.965 88.2732 39.415C87.8532 39.835 87.2982 40.045 86.6082 40.045ZM86.6082 31.045C85.9482 31.045 85.3932 30.835 84.9432 30.415C84.5232 29.965 84.3132 29.41 84.3132 28.75V7.15C84.3132 6.46 84.5232 5.905 84.9432 5.485C85.3932 5.065 85.9482 4.855 86.6082 4.855C87.2982 4.855 87.8532 5.065 88.2732 5.485C88.6932 5.905 88.9032 6.46 88.9032 7.15V28.75C88.9032 29.41 88.6932 29.965 88.2732 30.415C87.8532 30.835 87.2982 31.045 86.6082 31.045Z" fill="#0E4564"/>
<path d="M19.4542 53.072C19.0382 53.072 18.6022 52.996 18.1462 52.844C17.6902 52.692 17.3102 52.436 17.0062 52.076C16.9422 51.996 16.9142 51.912 16.9222 51.824C16.9382 51.728 16.9902 51.648 17.0782 51.584C17.1582 51.528 17.2422 51.508 17.3302 51.524C17.4262 51.54 17.5022 51.584 17.5582 51.656C17.7902 51.928 18.0702 52.12 18.3982 52.232C18.7342 52.336 19.0982 52.388 19.4902 52.388C20.1622 52.388 20.6382 52.268 20.9182 52.028C21.1982 51.788 21.3382 51.508 21.3382 51.188C21.3382 50.556 20.7262 50.152 19.5022 49.976C18.7022 49.864 18.1102 49.648 17.7262 49.328C17.3422 49.008 17.1502 48.636 17.1502 48.212C17.1502 47.612 17.3662 47.156 17.7982 46.844C18.2382 46.524 18.7942 46.364 19.4662 46.364C20.0102 46.364 20.4702 46.464 20.8462 46.664C21.2222 46.856 21.5262 47.116 21.7582 47.444C21.8222 47.524 21.8422 47.612 21.8182 47.708C21.8022 47.796 21.7422 47.868 21.6382 47.924C21.5582 47.964 21.4742 47.976 21.3862 47.96C21.2982 47.944 21.2222 47.896 21.1582 47.816C20.7502 47.296 20.1782 47.036 19.4422 47.036C18.9382 47.036 18.5462 47.144 18.2662 47.36C17.9862 47.576 17.8462 47.836 17.8462 48.14C17.8462 48.452 17.9822 48.708 18.2542 48.908C18.5262 49.1 18.9902 49.244 19.6462 49.34C20.2462 49.42 20.7182 49.556 21.0622 49.748C21.4142 49.94 21.6622 50.164 21.8062 50.42C21.9582 50.668 22.0342 50.936 22.0342 51.224C22.0342 51.6 21.9142 51.928 21.6742 52.208C21.4342 52.488 21.1182 52.704 20.7262 52.856C20.3342 53 19.9102 53.072 19.4542 53.072ZM29.9438 53C29.5038 52.992 29.1118 52.892 28.7678 52.7C28.4238 52.5 28.1558 52.228 27.9638 51.884C27.7718 51.532 27.6758 51.136 27.6758 50.696V47.324H26.7398C26.6438 47.324 26.5638 47.296 26.4998 47.24C26.4438 47.176 26.4158 47.096 26.4158 47C26.4158 46.904 26.4438 46.828 26.4998 46.772C26.5638 46.708 26.6438 46.676 26.7398 46.676H27.6758V44.72C27.6758 44.608 27.7078 44.52 27.7718 44.456C27.8438 44.384 27.9318 44.348 28.0358 44.348C28.1478 44.348 28.2358 44.384 28.2998 44.456C28.3718 44.52 28.4078 44.608 28.4078 44.72V46.676H29.9918C30.0878 46.676 30.1638 46.708 30.2198 46.772C30.2838 46.828 30.3158 46.904 30.3158 47C30.3158 47.096 30.2838 47.176 30.2198 47.24C30.1638 47.296 30.0878 47.324 29.9918 47.324H28.4078V50.696C28.4078 51.16 28.5518 51.54 28.8398 51.836C29.1278 52.124 29.4998 52.268 29.9558 52.268H30.2198C30.3318 52.268 30.4198 52.304 30.4838 52.376C30.5558 52.44 30.5918 52.528 30.5918 52.64C30.5918 52.744 30.5558 52.832 30.4838 52.904C30.4198 52.968 30.3318 53 30.2198 53H29.9438ZM38.6116 53.084C38.0356 53.084 37.5196 52.968 37.0636 52.736C36.6076 52.496 36.2436 52.148 35.9716 51.692C35.7076 51.236 35.5756 50.68 35.5756 50.024V46.796C35.5756 46.692 35.6076 46.608 35.6716 46.544C35.7436 46.472 35.8316 46.436 35.9356 46.436C36.0396 46.436 36.1236 46.472 36.1876 46.544C36.2596 46.608 36.2956 46.692 36.2956 46.796V50.024C36.2956 50.544 36.3956 50.98 36.5956 51.332C36.8036 51.676 37.0796 51.936 37.4236 52.112C37.7756 52.28 38.1716 52.364 38.6116 52.364C39.0436 52.364 39.4316 52.28 39.7756 52.112C40.1196 51.944 40.3916 51.72 40.5916 51.44C40.7916 51.152 40.8916 50.828 40.8916 50.468V46.796C40.8916 46.684 40.9236 46.596 40.9876 46.532C41.0596 46.468 41.1476 46.436 41.2516 46.436C41.3636 46.436 41.4516 46.468 41.5156 46.532C41.5796 46.596 41.6116 46.684 41.6116 46.796V52.64C41.6116 52.744 41.5796 52.832 41.5156 52.904C41.4516 52.968 41.3636 53 41.2516 53C41.1476 53 41.0596 52.968 40.9876 52.904C40.9236 52.832 40.8916 52.744 40.8916 52.64V52.016C40.6276 52.344 40.2956 52.604 39.8956 52.796C39.5036 52.988 39.0756 53.084 38.6116 53.084ZM50.3698 53.072C49.7298 53.072 49.1538 52.928 48.6418 52.64C48.1378 52.344 47.7378 51.944 47.4418 51.44C47.1538 50.928 47.0098 50.352 47.0098 49.712C47.0098 49.072 47.1538 48.5 47.4418 47.996C47.7378 47.492 48.1378 47.096 48.6418 46.808C49.1538 46.512 49.7298 46.364 50.3698 46.364C50.9458 46.364 51.4618 46.488 51.9178 46.736C52.3818 46.984 52.7418 47.316 52.9978 47.732V43.988C52.9978 43.876 53.0298 43.788 53.0938 43.724C53.1658 43.66 53.2538 43.628 53.3578 43.628C53.4698 43.628 53.5578 43.66 53.6218 43.724C53.6858 43.788 53.7178 43.876 53.7178 43.988V49.784C53.7098 50.408 53.5578 50.968 53.2618 51.464C52.9658 51.96 52.5658 52.352 52.0618 52.64C51.5658 52.928 51.0018 53.072 50.3698 53.072ZM50.3698 52.4C50.8738 52.4 51.3218 52.284 51.7138 52.052C52.1138 51.812 52.4258 51.492 52.6498 51.092C52.8818 50.684 52.9978 50.224 52.9978 49.712C52.9978 49.2 52.8818 48.744 52.6498 48.344C52.4258 47.944 52.1138 47.628 51.7138 47.396C51.3218 47.156 50.8738 47.036 50.3698 47.036C49.8738 47.036 49.4258 47.156 49.0258 47.396C48.6258 47.628 48.3098 47.944 48.0778 48.344C47.8458 48.744 47.7298 49.2 47.7298 49.712C47.7298 50.224 47.8458 50.684 48.0778 51.092C48.3098 51.492 48.6258 51.812 49.0258 52.052C49.4258 52.284 49.8738 52.4 50.3698 52.4ZM62.3817 53.06C61.7497 53.06 61.1857 52.92 60.6897 52.64C60.2017 52.352 59.8177 51.956 59.5377 51.452C59.2577 50.948 59.1177 50.372 59.1177 49.724C59.1177 49.068 59.2497 48.492 59.5137 47.996C59.7777 47.492 60.1417 47.096 60.6057 46.808C61.0697 46.52 61.6017 46.376 62.2017 46.376C62.7937 46.376 63.3177 46.516 63.7737 46.796C64.2297 47.068 64.5857 47.448 64.8417 47.936C65.0977 48.416 65.2257 48.972 65.2257 49.604C65.2257 49.708 65.1937 49.792 65.1297 49.856C65.0657 49.912 64.9817 49.94 64.8777 49.94H59.8497C59.8737 50.42 59.9977 50.844 60.2217 51.212C60.4457 51.58 60.7417 51.868 61.1097 52.076C61.4857 52.284 61.9097 52.388 62.3817 52.388C62.6937 52.388 63.0057 52.336 63.3177 52.232C63.6377 52.12 63.8897 51.976 64.0737 51.8C64.1377 51.736 64.2137 51.704 64.3017 51.704C64.3977 51.696 64.4777 51.72 64.5417 51.776C64.6297 51.848 64.6737 51.928 64.6737 52.016C64.6817 52.104 64.6457 52.184 64.5657 52.256C64.3097 52.488 63.9737 52.68 63.5577 52.832C63.1497 52.984 62.7577 53.06 62.3817 53.06ZM62.2017 47.048C61.7857 47.048 61.4097 47.144 61.0737 47.336C60.7377 47.528 60.4617 47.796 60.2457 48.14C60.0377 48.476 59.9097 48.868 59.8617 49.316H64.5297C64.4737 48.644 64.2337 48.1 63.8097 47.684C63.3857 47.26 62.8497 47.048 62.2017 47.048ZM70.7502 53C70.6462 53 70.5582 52.968 70.4862 52.904C70.4222 52.832 70.3902 52.744 70.3902 52.64V46.796C70.3902 46.684 70.4222 46.596 70.4862 46.532C70.5582 46.468 70.6462 46.436 70.7502 46.436C70.8622 46.436 70.9502 46.468 71.0142 46.532C71.0782 46.596 71.1102 46.684 71.1102 46.796V47.42C71.3742 47.092 71.7022 46.832 72.0942 46.64C72.4942 46.448 72.9262 46.352 73.3902 46.352C73.9662 46.352 74.4822 46.472 74.9382 46.712C75.4022 46.944 75.7662 47.288 76.0302 47.744C76.2942 48.192 76.4262 48.748 76.4262 49.412V52.64C76.4262 52.744 76.3902 52.832 76.3182 52.904C76.2542 52.968 76.1702 53 76.0662 53C75.9622 53 75.8742 52.968 75.8022 52.904C75.7382 52.832 75.7062 52.744 75.7062 52.64V49.412C75.7062 48.884 75.6022 48.448 75.3942 48.104C75.1942 47.76 74.9182 47.504 74.5662 47.336C74.2222 47.16 73.8302 47.072 73.3902 47.072C72.9582 47.072 72.5702 47.156 72.2262 47.324C71.8822 47.484 71.6102 47.708 71.4102 47.996C71.2102 48.284 71.1102 48.608 71.1102 48.968V52.64C71.1102 52.744 71.0782 52.832 71.0142 52.904C70.9502 52.968 70.8622 53 70.7502 53ZM84.7524 53C84.3124 52.992 83.9204 52.892 83.5764 52.7C83.2324 52.5 82.9644 52.228 82.7724 51.884C82.5804 51.532 82.4844 51.136 82.4844 50.696V47.324H81.5484C81.4524 47.324 81.3724 47.296 81.3084 47.24C81.2524 47.176 81.2244 47.096 81.2244 47C81.2244 46.904 81.2524 46.828 81.3084 46.772C81.3724 46.708 81.4524 46.676 81.5484 46.676H82.4844V44.72C82.4844 44.608 82.5164 44.52 82.5804 44.456C82.6524 44.384 82.7404 44.348 82.8444 44.348C82.9564 44.348 83.0444 44.384 83.1084 44.456C83.1804 44.52 83.2164 44.608 83.2164 44.72V46.676H84.8004C84.8964 46.676 84.9724 46.708 85.0284 46.772C85.0924 46.828 85.1244 46.904 85.1244 47C85.1244 47.096 85.0924 47.176 85.0284 47.24C84.9724 47.296 84.8964 47.324 84.8004 47.324H83.2164V50.696C83.2164 51.16 83.3604 51.54 83.6484 51.836C83.9364 52.124 84.3084 52.268 84.7644 52.268H85.0284C85.1404 52.268 85.2284 52.304 85.2924 52.376C85.3644 52.44 85.4004 52.528 85.4004 52.64C85.4004 52.744 85.3644 52.832 85.2924 52.904C85.2284 52.968 85.1404 53 85.0284 53H84.7524ZM92.7362 53.072C92.3202 53.072 91.8842 52.996 91.4282 52.844C90.9722 52.692 90.5922 52.436 90.2882 52.076C90.2242 51.996 90.1962 51.912 90.2042 51.824C90.2202 51.728 90.2722 51.648 90.3602 51.584C90.4402 51.528 90.5242 51.508 90.6122 51.524C90.7082 51.54 90.7842 51.584 90.8402 51.656C91.0722 51.928 91.3522 52.12 91.6802 52.232C92.0162 52.336 92.3802 52.388 92.7722 52.388C93.4442 52.388 93.9202 52.268 94.2002 52.028C94.4802 51.788 94.6202 51.508 94.6202 51.188C94.6202 50.556 94.0082 50.152 92.7842 49.976C91.9842 49.864 91.3922 49.648 91.0082 49.328C90.6242 49.008 90.4322 48.636 90.4322 48.212C90.4322 47.612 90.6482 47.156 91.0802 46.844C91.5202 46.524 92.0762 46.364 92.7482 46.364C93.2922 46.364 93.7522 46.464 94.1282 46.664C94.5042 46.856 94.8082 47.116 95.0402 47.444C95.1042 47.524 95.1242 47.612 95.1002 47.708C95.0842 47.796 95.0242 47.868 94.9202 47.924C94.8402 47.964 94.7562 47.976 94.6682 47.96C94.5802 47.944 94.5042 47.896 94.4402 47.816C94.0322 47.296 93.4602 47.036 92.7242 47.036C92.2202 47.036 91.8282 47.144 91.5482 47.36C91.2682 47.576 91.1282 47.836 91.1282 48.14C91.1282 48.452 91.2642 48.708 91.5362 48.908C91.8082 49.1 92.2722 49.244 92.9282 49.34C93.5282 49.42 94.0002 49.556 94.3442 49.748C94.6962 49.94 94.9442 50.164 95.0882 50.42C95.2402 50.668 95.3162 50.936 95.3162 51.224C95.3162 51.6 95.1962 51.928 94.9562 52.208C94.7162 52.488 94.4002 52.704 94.0082 52.856C93.6162 53 93.1922 53.072 92.7362 53.072Z" fill="#0E4564"/>
</svg>
