<svg width="200" height="200" viewBox="0 0 200 200" fill="none" xmlns="http://www.w3.org/2000/svg">
<circle cx="100" cy="100" r="100" fill="white"/>
<path d="M131.5 42.809L130.952 44.4957C130.918 44.5987 130.823 44.6684 130.714 44.6684H128.941L130.375 45.7109C130.463 45.7745 130.5 45.8874 130.466 45.9904L129.918 47.6771L131.353 46.6346C131.441 46.571 131.559 46.571 131.647 46.6346L133.082 47.6771L132.534 45.9904C132.5 45.8874 132.537 45.7745 132.625 45.7109L134.059 44.6684H132.286C132.177 44.6684 132.082 44.5987 132.048 44.4957L131.5 42.809Z" fill="#E4F5FF" stroke="#B9DCEE" stroke-width="0.5" stroke-linejoin="round"/>
<path d="M110 31.809L109.564 33.1502C109.531 33.2532 109.435 33.3229 109.326 33.3229H107.916L109.057 34.1518C109.145 34.2155 109.181 34.3284 109.148 34.4314L108.712 35.7725L109.853 34.9436C109.941 34.88 110.059 34.88 110.147 34.9436L111.288 35.7725L110.852 34.4314C110.819 34.3284 110.855 34.2155 110.943 34.1518L112.084 33.3229H110.674C110.565 33.3229 110.469 33.2532 110.436 33.1502L110 31.809Z" fill="#E4F5FF" stroke="#B9DCEE" stroke-width="0.5" stroke-linejoin="round"/>
<path d="M74.5 40.809L73.7275 43.1867C73.694 43.2897 73.598 43.3594 73.4897 43.3594H70.9897L73.0122 44.8289C73.0998 44.8926 73.1365 45.0054 73.103 45.1084L72.3305 47.4861L74.3531 46.0166C74.4407 45.9529 74.5593 45.9529 74.6469 46.0166L76.6695 47.4861L75.897 45.1084C75.8635 45.0054 75.9002 44.8926 75.9878 44.8289L78.0103 43.3594H75.5103C75.402 43.3594 75.306 43.2897 75.2725 43.1867L74.5 40.809Z" fill="#E4F5FF" stroke="#B9DCEE" stroke-width="0.5" stroke-linejoin="round"/>
<path d="M97.5 44.809L98.2725 47.1867C98.306 47.2897 98.402 47.3594 98.5103 47.3594H101.01L98.9878 48.8289C98.9002 48.8926 98.8635 49.0054 98.897 49.1084L99.6695 51.4861L97.6469 50.0166C97.5593 49.9529 97.4407 49.9529 97.3531 50.0166L95.3305 51.4861L96.103 49.1084C96.1365 49.0054 96.0998 48.8926 96.0122 48.8289L93.9897 47.3594H96.4897C96.598 47.3594 96.694 47.2897 96.7275 47.1867L97.5 44.809Z" fill="#E4F5FF" stroke="#B9DCEE" stroke-width="0.5" stroke-linejoin="round"/>
<path d="M164 78.0123H37V148.012H164V78.0123Z" fill="#7DC284" stroke="#436142" stroke-width="4"/>
<path d="M142.25 139C142.714 133.436 145.5 130.655 152 130.191V95.8818C145.964 96.3455 143.179 93.1 143.643 88H56.8214C57.2857 93.5636 53.5714 96.8091 48 96.3455V129.264C54.4642 131 56.5505 133.094 57.2857 139H142.25Z" fill="#C0EDC5"/>
<path d="M123.214 106.545H137.607M123.214 114.427H142.25M123.214 121.845H137.607M77.25 106.545H62.8571M77.25 114.427H58.2143M77.25 121.845H62.8571M152 130.191C145.5 130.655 142.714 133.436 142.25 139H57.2857C56.5505 133.094 54.4642 131 48 129.264V96.3455C53.5714 96.8091 57.2857 93.5636 56.8214 88H143.643C143.179 93.1 145.964 96.3455 152 95.8818V130.191Z" stroke="#436142" stroke-width="4"/>
<circle cx="100" cy="113" r="16" fill="#C0EDC5" stroke="#436142" stroke-width="4"/>
<path d="M103 108.158V108.158C103 106.065 101.303 104.368 99.2105 104.368H98.5835C96.6044 104.368 95 105.973 95 107.952V107.952C95 109.135 95.5837 110.241 96.56 110.909L101.259 114.124C102.348 114.87 103 116.105 103 117.426V117.632C103 119.841 101.209 121.632 99 121.632H98.7895C96.6966 121.632 95 119.935 95 117.842V117.842M99.2105 101V125" stroke="#436142" stroke-width="3" stroke-linejoin="round"/>
<path d="M145.835 53L73.0856 76.9997L153.436 76.9997L149.636 64.6619L145.835 53Z" fill="#7DC284" stroke="#436142" stroke-width="4"/>
<path d="M142.523 71.2427C136.676 73.6585 132.856 71.3313 131.664 66.1064L97 76.9887L144.482 76.9886L142.523 71.2427Z" fill="#C0EDC5" stroke="#436142" stroke-width="4"/>
<path d="M124.552 58L120.552 49L59.0519 78.2648L74.0518 74.5L91.5518 69L124.552 58Z" fill="#7DC284" stroke="#436142" stroke-width="4"/>
<path d="M65 57.809L65.4358 59.1502C65.4692 59.2532 65.5652 59.3229 65.6735 59.3229H67.0837L65.9429 60.1518C65.8552 60.2155 65.8186 60.3284 65.852 60.4314L66.2878 61.7725L65.1469 60.9436C65.0593 60.88 64.9407 60.88 64.8531 60.9436L63.7122 61.7725L64.148 60.4314C64.1814 60.3284 64.1448 60.2155 64.0571 60.1518L62.9163 59.3229H64.3265C64.4348 59.3229 64.5308 59.2532 64.5642 59.1502L65 57.809Z" fill="#E4F5FF" stroke="#B9DCEE" stroke-width="0.5" stroke-linejoin="round"/>
<path d="M85.5 50.809L86.048 52.4957C86.0815 52.5987 86.1775 52.6684 86.2858 52.6684H88.0593L86.6245 53.7109C86.5369 53.7745 86.5002 53.8874 86.5337 53.9904L87.0817 55.6771L85.6469 54.6346C85.5593 54.571 85.4407 54.571 85.3531 54.6346L83.9183 55.6771L84.4663 53.9904C84.4998 53.8874 84.4631 53.7745 84.3755 53.7109L82.9407 52.6684H84.7142C84.8225 52.6684 84.9185 52.5987 84.952 52.4957L85.5 50.809Z" fill="#E4F5FF" stroke="#B9DCEE" stroke-width="0.5" stroke-linejoin="round"/>
</svg>
