<svg width="200" height="200" viewBox="0 0 200 200" fill="none" xmlns="http://www.w3.org/2000/svg">
<circle cx="100" cy="100" r="100" fill="white"/>
<path d="M148.17 148.864V71.1768H130.157V148.864H148.17Z" fill="#AAACAD"/>
<path d="M98.238 148.864V68H77.1259V148.864H98.238Z" fill="#AAACAD"/>
<path d="M47.6361 148.864H29.9589V77.1454H47.6361V148.864Z" fill="#AAACAD"/>
<path d="M22 148.864H29.9589M130.157 148.864H148.17V71.1768H130.157V148.864ZM130.157 148.864H120.5M77.1259 148.864H98.238V68H77.1259V148.864ZM77.1259 148.864H68.0779M29.9589 148.864H47.6361V77.1454H29.9589V148.864ZM136.106 85.8094V132.788M142.305 132.788V85.8094M34.9856 89.275H42.8607M34.9856 101.405H42.8607M34.9856 111.802H42.8607M34.9856 122.969H42.8607M34.9856 134.906H42.8607M81.4824 78.8782H85.2524M89.8602 78.8782H93.9653M81.4824 85.8094H85.2524M89.8602 85.8094H93.9653M81.4824 91.778H85.2524M89.8602 91.778H93.9653M81.4824 98.7092H85.2524M89.8602 98.7092H93.9653M81.4824 105.352H85.2524M89.8602 105.352H93.9653M81.4824 112.283H85.2524M89.8602 112.283H93.9653M81.4824 118.251H85.2524M89.8602 118.251H93.9653M81.4824 125.183H85.2524M89.8602 125.183H93.9653M81.4824 131.344H85.2524M89.8602 131.344H93.9653M81.4824 138.275H85.2524M89.8602 138.275H93.9653" stroke="#2F3437" stroke-width="3" stroke-linecap="round" stroke-linejoin="round"/>
<path d="M168.276 59.7603V149H148.169V71.3124V59.7603H168.276Z" fill="#B48E6C"/>
<path d="M120.439 51V149H98.2377V68.1356V51H120.439Z" fill="#B48E6C"/>
<path d="M68.0776 59.7603V149H47.6357V59.7603H68.0776Z" fill="#B48E6C"/>
<path d="M179 149H168.276M168.276 149V59.7603H148.169V71.3124V149H168.276ZM54.2542 71.3124V139.277M61.5429 139.084V71.1198M105.694 66.4028H113.569M105.694 78.5324H113.569M105.694 88.9293H113.569M105.694 100.096H113.569M105.694 112.033H113.569M105.694 123.104H113.569M105.694 133.886H113.569M152.107 77.2809H155.877M160.485 77.2809H164.59M152.107 84.2122H155.877M160.485 84.2122H164.59M152.107 90.1807H155.877M160.485 90.1807H164.59M152.107 97.112H155.877M160.485 97.112H164.59M152.107 103.754H155.877M160.485 103.754H164.59M152.107 110.686H155.877M160.485 110.686H164.59M152.107 116.654H155.877M160.485 116.654H164.59M152.107 123.585H155.877M160.485 123.585H164.59M152.107 129.747H155.877M160.485 129.747H164.59M152.107 136.678H155.877M160.485 136.678H164.59M152.107 71.3124H155.877M160.485 71.3124H164.59M120.439 149V51H98.2377V68.1356V149H120.439ZM68.0776 149V59.7603H47.6357V149H68.0776Z" stroke="#5F381D" stroke-width="3" stroke-linecap="round" stroke-linejoin="round"/>
</svg>
