<svg width="40" height="53" viewBox="0 0 40 53" fill="none" xmlns="http://www.w3.org/2000/svg">
<path d="M24.6512 11.5318C26.2449 12.2357 27.3247 13.7357 27.4653 15.4413C27.5123 16.0107 27.0047 16.4745 26.4275 16.3888L25.8129 16.2977C25.4107 16.238 25.1024 15.9223 25.0508 15.5274C25.0008 15.1469 24.8567 14.7842 24.6309 14.4706C24.4052 14.157 24.1047 13.902 23.7554 13.7279C23.3928 13.5474 23.1929 13.157 23.2709 12.7662L23.3901 12.1691C23.502 11.6085 24.1191 11.2968 24.6512 11.5318ZM26.3429 2.16624C33.1333 3.92331 37.6412 10.1919 37.0461 17.0354C37.0018 17.5449 36.5252 17.9112 36.0086 17.8345L35.4122 17.746C34.9431 17.6764 34.6079 17.2639 34.6466 16.8011C35.1222 11.1197 31.3824 5.92956 25.7605 4.45629C25.3022 4.33615 25.0181 3.88838 25.1091 3.43262L25.2247 2.85322C25.3249 2.35138 25.8377 2.03552 26.3429 2.16624ZM25.464 6.81315C29.6815 8.07072 32.4893 11.964 32.2791 16.2809C32.2535 16.8057 31.7698 17.194 31.239 17.1151L30.6404 17.0262C30.1877 16.9589 29.8536 16.571 29.8724 16.1232C30.0067 12.9227 27.9298 10.0378 24.8054 9.08404C24.3682 8.95061 24.1075 8.51214 24.1952 8.07227L24.3111 7.4907C24.4139 6.97501 24.9504 6.66 25.464 6.81315Z" fill="#0E4564"/>
<g clip-path="url(#clip0)">
<path d="M20.4307 15.3634H3.60542C1.61493 15.3634 0 16.9438 0 18.8918V49.4716C0 51.4196 1.61493 53 3.60542 53H20.4307C22.4212 53 24.0361 51.4196 24.0361 49.4716V18.8918C24.0361 16.9438 22.4212 15.3634 20.4307 15.3634ZM12.0181 50.6477C10.6886 50.6477 9.61445 49.5966 9.61445 48.2954C9.61445 46.9943 10.6886 45.9432 12.0181 45.9432C13.3476 45.9432 14.4217 46.9943 14.4217 48.2954C14.4217 49.5966 13.3476 50.6477 12.0181 50.6477ZM20.4307 42.7088C20.4307 43.1939 20.0251 43.5909 19.5294 43.5909H4.50677C4.01103 43.5909 3.60542 43.1939 3.60542 42.7088V19.7739C3.60542 19.2888 4.01103 18.8918 4.50677 18.8918H19.5294C20.0251 18.8918 20.4307 19.2888 20.4307 19.7739V42.7088Z" fill="#0E4564"/>
</g>
<defs>
<clipPath id="clip0">
<rect width="24.0361" height="37.6366" fill="white" transform="translate(0 15.3634)"/>
</clipPath>
</defs>
</svg>
