<svg width="200" height="200" viewBox="0 0 200 200" fill="none" xmlns="http://www.w3.org/2000/svg">
<circle cx="100" cy="100" r="100" fill="white"/>
<path d="M68.5 26.809L69.048 28.4957C69.0815 28.5987 69.1775 28.6684 69.2858 28.6684H71.0593L69.6245 29.7109C69.5369 29.7745 69.5002 29.8874 69.5337 29.9904L70.0817 31.6771L68.6469 30.6346C68.5593 30.571 68.4407 30.571 68.3531 30.6346L66.9183 31.6771L67.4663 29.9904C67.4998 29.8874 67.4631 29.7745 67.3755 29.7109L65.9407 28.6684H67.7142C67.8225 28.6684 67.9185 28.5987 67.952 28.4957L68.5 26.809Z" fill="#E4F5FF" stroke="#B9DCEE" stroke-width="0.5" stroke-linejoin="round"/>
<path d="M132.5 26.809L131.952 28.4957C131.918 28.5987 131.823 28.6684 131.714 28.6684H129.941L131.375 29.7109C131.463 29.7745 131.5 29.8874 131.466 29.9904L130.918 31.6771L132.353 30.6346C132.441 30.571 132.559 30.571 132.647 30.6346L134.082 31.6771L133.534 29.9904C133.5 29.8874 133.537 29.7745 133.625 29.7109L135.059 28.6684H133.286C133.177 28.6684 133.082 28.5987 133.048 28.4957L132.5 26.809Z" fill="#E4F5FF" stroke="#B9DCEE" stroke-width="0.5" stroke-linejoin="round"/>
<path d="M75.5 51.809L74.952 53.4957C74.9185 53.5987 74.8225 53.6684 74.7142 53.6684H72.9407L74.3755 54.7109C74.4631 54.7745 74.4998 54.8874 74.4663 54.9904L73.9183 56.6771L75.3531 55.6346C75.4407 55.571 75.5593 55.571 75.6469 55.6346L77.0817 56.6771L76.5337 54.9904C76.5002 54.8874 76.5369 54.7745 76.6245 54.7109L78.0593 53.6684H76.2858C76.1775 53.6684 76.0815 53.5987 76.048 53.4957L75.5 51.809Z" fill="#E4F5FF" stroke="#B9DCEE" stroke-width="0.5" stroke-linejoin="round"/>
<path d="M125.5 51.809L126.048 53.4957C126.082 53.5987 126.177 53.6684 126.286 53.6684H128.059L126.625 54.7109C126.537 54.7745 126.5 54.8874 126.534 54.9904L127.082 56.6771L125.647 55.6346C125.559 55.571 125.441 55.571 125.353 55.6346L123.918 56.6771L124.466 54.9904C124.5 54.8874 124.463 54.7745 124.375 54.7109L122.941 53.6684H124.714C124.823 53.6684 124.918 53.5987 124.952 53.4957L125.5 51.809Z" fill="#E4F5FF" stroke="#B9DCEE" stroke-width="0.5" stroke-linejoin="round"/>
<path d="M83.5 22.809L84.2725 25.1867C84.306 25.2897 84.402 25.3594 84.5103 25.3594H87.0103L84.9878 26.8289C84.9002 26.8926 84.8635 27.0054 84.897 27.1084L85.6695 29.4861L83.6469 28.0166C83.5593 27.9529 83.4407 27.9529 83.3531 28.0166L81.3305 29.4861L82.103 27.1084C82.1365 27.0054 82.0998 26.8926 82.0122 26.8289L79.9897 25.3594H82.4897C82.598 25.3594 82.694 25.2897 82.7275 25.1867L83.5 22.809Z" fill="#E4F5FF" stroke="#B9DCEE" stroke-width="0.5" stroke-linejoin="round"/>
<path d="M117.5 22.809L116.727 25.1867C116.694 25.2897 116.598 25.3594 116.49 25.3594H113.99L116.012 26.8289C116.1 26.8926 116.137 27.0054 116.103 27.1084L115.33 29.4861L117.353 28.0166C117.441 27.9529 117.559 27.9529 117.647 28.0166L119.67 29.4861L118.897 27.1084C118.863 27.0054 118.9 26.8926 118.988 26.8289L121.01 25.3594H118.51C118.402 25.3594 118.306 25.2897 118.273 25.1867L117.5 22.809Z" fill="#E4F5FF" stroke="#B9DCEE" stroke-width="0.5" stroke-linejoin="round"/>
<path d="M71.5 39.809L70.7275 42.1867C70.694 42.2897 70.598 42.3594 70.4897 42.3594H67.9897L70.0122 43.8289C70.0998 43.8926 70.1365 44.0054 70.103 44.1084L69.3305 46.4861L71.3531 45.0166C71.4407 44.9529 71.5593 44.9529 71.6469 45.0166L73.6695 46.4861L72.897 44.1084C72.8635 44.0054 72.9002 43.8926 72.9878 43.8289L75.0103 42.3594H72.5103C72.402 42.3594 72.306 42.2897 72.2725 42.1867L71.5 39.809Z" fill="#E4F5FF" stroke="#B9DCEE" stroke-width="0.5" stroke-linejoin="round"/>
<path d="M129.5 39.809L130.273 42.1867C130.306 42.2897 130.402 42.3594 130.51 42.3594H133.01L130.988 43.8289C130.9 43.8926 130.863 44.0054 130.897 44.1084L131.67 46.4861L129.647 45.0166C129.559 44.9529 129.441 44.9529 129.353 45.0166L127.33 46.4861L128.103 44.1084C128.137 44.0054 128.1 43.8926 128.012 43.8289L125.99 42.3594H128.49C128.598 42.3594 128.694 42.2897 128.727 42.1867L129.5 39.809Z" fill="#E4F5FF" stroke="#B9DCEE" stroke-width="0.5" stroke-linejoin="round"/>
<path d="M55 45.809L55.4358 47.1502C55.4692 47.2532 55.5652 47.3229 55.6735 47.3229H57.0837L55.9429 48.1518C55.8552 48.2155 55.8186 48.3284 55.852 48.4314L56.2878 49.7725L55.1469 48.9436C55.0593 48.88 54.9407 48.88 54.8531 48.9436L53.7122 49.7725L54.148 48.4314C54.1814 48.3284 54.1448 48.2155 54.0571 48.1518L52.9163 47.3229H54.3265C54.4348 47.3229 54.5308 47.2532 54.5642 47.1502L55 45.809Z" fill="#E4F5FF" stroke="#B9DCEE" stroke-width="0.5" stroke-linejoin="round"/>
<path d="M146 45.809L145.564 47.1502C145.531 47.2532 145.435 47.3229 145.326 47.3229H143.916L145.057 48.1518C145.145 48.2155 145.181 48.3284 145.148 48.4314L144.712 49.7725L145.853 48.9436C145.941 48.88 146.059 48.88 146.147 48.9436L147.288 49.7725L146.852 48.4314C146.819 48.3284 146.855 48.2155 146.943 48.1518L148.084 47.3229H146.674C146.565 47.3229 146.469 47.2532 146.436 47.1502L146 45.809Z" fill="#E4F5FF" stroke="#B9DCEE" stroke-width="0.5" stroke-linejoin="round"/>
<path d="M66 54.809L65.5642 56.1502C65.5308 56.2532 65.4348 56.3229 65.3265 56.3229H63.9163L65.0571 57.1518C65.1448 57.2155 65.1814 57.3284 65.148 57.4314L64.7122 58.7725L65.8531 57.9436C65.9407 57.88 66.0593 57.88 66.1469 57.9436L67.2878 58.7725L66.852 57.4314C66.8186 57.3284 66.8552 57.2155 66.9429 57.1518L68.0837 56.3229H66.6735C66.5652 56.3229 66.4692 56.2532 66.4358 56.1502L66 54.809Z" fill="#E4F5FF" stroke="#B9DCEE" stroke-width="0.5" stroke-linejoin="round"/>
<path d="M135 54.809L135.436 56.1502C135.469 56.2532 135.565 56.3229 135.674 56.3229H137.084L135.943 57.1518C135.855 57.2155 135.819 57.3284 135.852 57.4314L136.288 58.7725L135.147 57.9436C135.059 57.88 134.941 57.88 134.853 57.9436L133.712 58.7725L134.148 57.4314C134.181 57.3284 134.145 57.2155 134.057 57.1518L132.916 56.3229H134.326C134.435 56.3229 134.531 56.2532 134.564 56.1502L135 54.809Z" fill="#E4F5FF" stroke="#B9DCEE" stroke-width="0.5" stroke-linejoin="round"/>
<path fill-rule="evenodd" clip-rule="evenodd" d="M99.6751 97.3383C99.6779 97.0728 99.6778 96.8076 99.6751 96.5427C99.6724 96.8076 99.6724 97.0728 99.6751 97.3383Z" fill="#0C3408"/>
<path d="M81.6392 68.3594C69.6377 64.2266 66.6966 65.2867 51 65.3319C53.4716 86.5873 61.301 94.9586 68.384 97.3383H99.6751C99.6724 97.0728 99.6724 96.8076 99.6751 96.5427C99.5465 84.123 93.3901 72.4059 81.6392 68.3594Z" fill="#0C3408"/>
<path d="M100.327 29C86.9665 40.5314 81.9081 48.5381 81.6392 68.3594C93.3901 72.4059 99.5465 84.123 99.6751 96.5427C99.8037 84.123 105.96 72.4058 117.711 68.3593C118.654 51.3611 113.419 43.044 100.327 29Z" fill="#0C3408"/>
<path d="M131.618 97.3383C138.701 94.9586 145.879 86.5872 148.35 65.3318C145.395 65.3233 142.893 65.2788 140.696 65.2398C131.225 65.0715 127.453 65.0045 117.711 68.3593C105.96 72.4058 99.8037 84.123 99.6751 96.5427C99.6778 96.8076 99.6779 97.0728 99.6751 97.3383H131.618Z" fill="#0C3408"/>
<path d="M99.6751 97.3383C99.6724 97.0728 99.6724 96.8076 99.6751 96.5427M99.6751 97.3383H68.384C61.301 94.9586 53.4716 86.5873 51 65.3319C66.6966 65.2867 69.6377 64.2266 81.6392 68.3594M99.6751 97.3383C99.6779 97.0728 99.6778 96.8076 99.6751 96.5427M99.6751 97.3383H131.618C138.701 94.9586 145.879 86.5872 148.35 65.3318C145.395 65.3233 142.893 65.2788 140.696 65.2398C131.225 65.0715 127.453 65.0045 117.711 68.3593M81.6392 68.3594C81.9081 48.5381 86.9665 40.5314 100.327 29C113.419 43.044 118.654 51.3611 117.711 68.3593M81.6392 68.3594C93.3901 72.4059 99.5465 84.123 99.6751 96.5427M117.711 68.3593C105.96 72.4058 99.8037 84.123 99.6751 96.5427" stroke="#13570D" stroke-width="4" stroke-linecap="round" stroke-linejoin="round"/>
<path d="M130.984 156H71C71.9538 160.417 75.8599 163.569 80.3784 163.569H121.606C126.124 163.569 130.031 160.417 130.984 156Z" fill="#723919"/>
<path d="M71 156V156C71.9538 160.417 75.8599 163.569 80.3784 163.569V163.569M71 156H130.984M71 156C71.9538 160.417 75.8599 163.569 80.3784 163.569M130.984 156V156C130.031 160.417 126.124 163.569 121.606 163.569V163.569M130.984 156C130.031 160.417 126.124 163.569 121.606 163.569M121.606 163.569H80.3784" stroke="#371705" stroke-width="4" stroke-linecap="round" stroke-linejoin="round"/>
<path d="M62 115L71.0131 156.738H130.997L140.011 115H62Z" fill="#662602" stroke="#371705" stroke-width="4" stroke-linecap="round" stroke-linejoin="round"/>
<path d="M57.6027 115H62.6962H139.949H144.397C148.596 115 152 111.642 152 107.5C152 103.358 148.596 100 144.397 100H132.633H101H70.0127H57.6027C53.4038 100 50 103.358 50 107.5C50 111.642 53.4038 115 57.6027 115Z" fill="#7E3C17"/>
<path d="M62.6962 115H57.6027M62.6962 115H144.397M62.6962 115H139.949H144.397M101 100H70.0127H57.6027M101 100H144.397M101 100H57.6027M101 100H132.633H144.397M57.6027 115C53.4038 115 50 111.642 50 107.5M57.6027 115H57.5C53.3579 115 50 111.642 50 107.5V107.5M50 107.5C50 103.358 53.4038 100 57.6027 100M50 107.5V107.5C50 103.358 53.3579 100 57.5 100H57.6027M144.397 100C148.596 100 152 103.358 152 107.5M144.397 100H144.5C148.642 100 152 103.358 152 107.5V107.5M152 107.5C152 111.642 148.596 115 144.397 115M152 107.5V107.5C152 111.642 148.642 115 144.5 115H144.397" stroke="#371705" stroke-width="4" stroke-linecap="round" stroke-linejoin="round"/>
</svg>
