<svg width="28" height="28" viewBox="0 0 28 28" fill="none" xmlns="http://www.w3.org/2000/svg">
<path d="M16.625 2.625C16.625 4.07477 15.4498 5.25 14 5.25C12.5502 5.25 11.375 4.07477 11.375 2.625C11.375 1.17523 12.5502 0 14 0C15.4498 0 16.625 1.17523 16.625 2.625ZM14 22.75C12.5502 22.75 11.375 23.9252 11.375 25.375C11.375 26.8248 12.5502 28 14 28C15.4498 28 16.625 26.8248 16.625 25.375C16.625 23.9252 15.4498 22.75 14 22.75ZM25.375 11.375C23.9252 11.375 22.75 12.5502 22.75 14C22.75 15.4498 23.9252 16.625 25.375 16.625C26.8248 16.625 28 15.4498 28 14C28 12.5502 26.8248 11.375 25.375 11.375ZM5.25 14C5.25 12.5502 4.07477 11.375 2.625 11.375C1.17523 11.375 0 12.5502 0 14C0 15.4498 1.17523 16.625 2.625 16.625C4.07477 16.625 5.25 15.4498 5.25 14ZM5.95667 19.4183C4.50691 19.4183 3.33167 20.5936 3.33167 22.0433C3.33167 23.4931 4.50691 24.6683 5.95667 24.6683C7.40644 24.6683 8.58167 23.4931 8.58167 22.0433C8.58167 20.5936 7.40638 19.4183 5.95667 19.4183ZM22.0433 19.4183C20.5936 19.4183 19.4183 20.5936 19.4183 22.0433C19.4183 23.4931 20.5936 24.6683 22.0433 24.6683C23.4931 24.6683 24.6683 23.4931 24.6683 22.0433C24.6683 20.5936 23.4931 19.4183 22.0433 19.4183ZM5.95667 3.33167C4.50691 3.33167 3.33167 4.50691 3.33167 5.95667C3.33167 7.40644 4.50691 8.58167 5.95667 8.58167C7.40644 8.58167 8.58167 7.40644 8.58167 5.95667C8.58167 4.50691 7.40638 3.33167 5.95667 3.33167Z" fill="#7EBFE2"/>
</svg>
