<svg width="43" height="43" viewBox="0 0 43 43" fill="none" xmlns="http://www.w3.org/2000/svg">
<g clip-path="url(#clip0)">
<path d="M37.2888 4.19083C36.2222 3.20821 31.9054 0.0755928 22.2808 0.0336006C22.2808 0.0336006 10.9345 -0.646673 5.40829 4.42598C2.33447 7.49981 1.25107 12.0098 1.13349 17.5947C1.01591 23.1797 0.873137 33.6441 10.9597 36.4828H10.9681L10.9597 40.8164C10.9597 40.8164 10.8925 42.5717 12.0515 42.9244C13.4456 43.3611 14.2686 42.0258 15.604 40.5897C16.3347 39.8002 17.3425 38.6412 18.1067 37.7594C25.0102 38.3389 30.3097 37.0119 30.9144 36.8188C32.3085 36.3652 40.1946 35.3574 41.4712 24.893C42.7981 14.0926 40.8329 7.27305 37.2888 4.19083ZM38.4562 24.1035C37.3727 32.8379 30.9815 33.3922 29.8058 33.7701C29.3019 33.9297 24.6407 35.0887 18.787 34.7107C18.787 34.7107 14.4198 39.9766 13.0593 41.3455C12.6142 41.7906 12.127 41.7486 12.1354 40.8668C12.1354 40.2873 12.169 33.6693 12.169 33.6693C12.1606 33.6693 12.1606 33.6693 12.169 33.6693C3.61943 31.301 4.12333 22.3902 4.21572 17.7291C4.3081 13.068 5.18993 9.24669 7.79345 6.67676C12.4714 2.43555 22.1044 3.06544 22.1044 3.06544C30.2425 3.09903 34.1394 5.55137 35.0464 6.37442C38.0446 8.94434 39.5731 15.092 38.4562 24.1035ZM26.7823 17.3176C26.8159 18.0399 25.7325 18.0902 25.6989 17.368C25.6065 15.5203 24.7415 14.6217 22.961 14.5209C22.2388 14.4789 22.306 13.3955 23.0198 13.4375C25.363 13.5635 26.6647 14.9072 26.7823 17.3176ZM28.4872 18.2666C28.5712 14.7057 26.3456 11.9174 22.1212 11.6066C21.4073 11.5563 21.4829 10.4729 22.1968 10.5232C27.0679 10.876 29.663 14.227 29.5706 18.2918C29.5622 19.0141 28.4704 18.9805 28.4872 18.2666ZM32.4345 19.392C32.4429 20.1143 31.3511 20.1227 31.3511 19.4004C31.3007 12.5557 26.7403 8.82676 21.2058 8.78477C20.4919 8.77637 20.4919 7.70137 21.2058 7.70137C27.3954 7.74337 32.3757 12.0182 32.4345 19.392ZM31.4854 27.6309V27.6477C30.5784 29.2434 28.8819 31.007 27.1351 30.4443L27.1183 30.4191C25.3462 29.9236 21.1722 27.7736 18.5351 25.674C17.1745 24.599 15.9315 23.3309 14.9741 22.1131C14.1091 21.0297 13.2356 19.7447 12.3874 18.1994C10.5985 14.966 10.2038 13.5215 10.2038 13.5215C9.64111 11.7746 11.3964 10.0781 13.0005 9.1711H13.0173C13.7899 8.76797 14.529 8.90235 15.0245 9.49864C15.0245 9.49864 16.0659 10.7416 16.511 11.3547C16.931 11.9258 17.4936 12.8412 17.7876 13.3535C18.2999 14.269 17.9808 15.2012 17.4769 15.5875L16.469 16.3938C15.9567 16.8053 16.0239 17.5695 16.0239 17.5695C16.0239 17.5695 17.5188 23.2217 23.1038 24.6494C23.1038 24.6494 23.8681 24.7166 24.2796 24.2043L25.0858 23.1965C25.4722 22.6926 26.4044 22.3734 27.3198 22.8857C28.5544 23.5828 30.1249 24.6662 31.1663 25.6488C31.7542 26.1275 31.8886 26.8582 31.4854 27.6309Z" fill="#0E4564"/>
</g>
<defs>
<clipPath id="clip0">
<rect width="43" height="43" fill="white"/>
</clipPath>
</defs>
</svg>
